<svg xmlns="http://www.w3.org/2000/svg" xmlns:xlink="http://www.w3.org/1999/xlink" version="1.1" id="Camada_1" x="0px" y="0px" style="enable-background:new 0 0 400 400;" xml:space="preserve" viewBox="228.5 354.5 539.2 230.1">
<style type="text/css">
	.st0{display:none;}
	.st1{fill:#FFFFFF;}
	.st2{display:inline;fill:#FFFFFF;}
	.st3{display:none;fill:#FFFFFF;}
	.st4{fill:none;}
</style>
<g id="Camada_2">
</g>
<rect class="st0" width="100" height="100"/>
<image style="display:none;overflow:visible;" width="856" height="444" xlink:href="Imagem do WhatsApp de 2024-08-08 à(s) 02.10.30_8ed1a8a9.jpg" transform="matrix(0.75 0 0 0.75 179 333)">
</image>
<path class="st1" d="M234.4,369.1h218.3c1.6,0,2.9-1.3,2.9-2.9v-5.8c0-1.6-1.3-2.9-2.9-2.9H234.2c-3.2,0-5.7,2.6-5.7,5.7l0,0  C228.5,366.5,231.1,369.1,234.4,369.1z"/>
<g>
	<path class="st1" d="M274.6,469.8v35.6c0,5.6-2,10.2-6.1,13.9c-4.1,3.6-9.3,5.5-15.8,5.5h-2.2c-6.4,0-11.6-1.8-15.7-5.5   c-4.1-3.7-6.2-8.3-6.2-13.8v-88.7c0-5.5,2.1-10.1,6.2-13.8c4.1-3.7,9.4-5.5,15.7-5.5h2.2c6.5,0,11.8,1.8,15.8,5.5   c4.1,3.6,6.1,8.3,6.1,13.9v35.2H259v-35.6c0-1.5-0.6-2.9-1.8-4c-1.2-1.1-2.7-1.7-4.5-1.7h-2.4c-1.8,0-3.2,0.6-4.4,1.7   c-1.1,1.1-1.7,2.5-1.7,4v89.4c0,1.5,0.6,2.9,1.7,4c1.1,1.1,2.6,1.7,4.4,1.7h2.4c1.8,0,3.2-0.6,4.5-1.7c1.2-1.1,1.8-2.5,1.8-4v-35.9   H274.6z"/>
	<path class="st1" d="M307.2,398.5v125.1h-15.6V398.5H307.2z"/>
	<path class="st1" d="M380.2,398.5v125.1h-14.8l-26-81.1h-0.2v81.1h-15.6V398.5h15.2l25.6,81.3h0.2l0.2-81.3H380.2z"/>
	<path class="st1" d="M434.8,398.5v13.2h-24.1v42.7h24.1v13.2h-24.1v42.7h24.1v13.2H395V398.5H434.8z"/>
	<path class="st1" d="M529.7,398.5v125.1H514v-80.1l-18.9,80.1h-10.7l-18.7-80.1v80.1h-15.6V398.5h19.1l20.7,90.3l20.7-90.3H529.7z"/>
	<path class="st1" d="M540.4,523.6l19.5-125.1h19.9l19.1,125.1h-15.6l-4.7-31.3h-17.8l-4.5,31.3H540.4z M562.5,479.2h14.2l-6.7-59.3   h-0.4L562.5,479.2z"/>
	<path class="st1" d="M650.3,398.5v12.9h-16.6v112.2h-15.4V411.3h-16.6v-12.9H650.3z"/>
	<path class="st1" d="M706.5,469.8v35.6c0,5.6-2,10.2-6.1,13.9c-4.1,3.6-9.3,5.5-15.8,5.5h-2.2c-6.4,0-11.6-1.8-15.7-5.5   c-4.1-3.7-6.2-8.3-6.2-13.8v-88.7c0-5.5,2.1-10.1,6.2-13.8c4.1-3.7,9.4-5.5,15.7-5.5h2.2c6.5,0,11.8,1.8,15.8,5.5   c4.1,3.6,6.1,8.3,6.1,13.9v35.2h-15.6v-35.6c0-1.5-0.6-2.9-1.8-4c-1.2-1.1-2.7-1.7-4.5-1.7h-2.4c-1.8,0-3.2,0.6-4.4,1.7   c-1.2,1.1-1.7,2.5-1.7,4v89.4c0,1.5,0.6,2.9,1.7,4c1.1,1.1,2.6,1.7,4.4,1.7h2.4c1.8,0,3.2-0.6,4.5-1.7c1.2-1.1,1.8-2.5,1.8-4v-35.9   H706.5z"/>
	<path class="st1" d="M766.5,398.5v125.1h-15.4v-56.3h-12v56.3h-15.6V398.5h15.6V454h12v-55.6H766.5z"/>
</g>
<path class="st1" d="M760.7,369.1H535.6c-1.6,0-2.8-1.3-2.8-2.9v-5.8c0-1.6,1.3-2.9,2.8-2.9h225.2c3.2,0,5.7,2.6,5.7,5.7l0,0  C766.5,366.5,763.9,369.1,760.7,369.1z"/>
<ellipse class="st1" cx="491.9" cy="363.4" rx="10.9" ry="8.9"/>
<path class="st1" d="M761.9,570.4H630.5c-1.6,0-2.9-1.3-2.9-2.8v-5.8c0-1.6,1.3-2.8,2.9-2.8H762c3.2,0,5.7,2.6,5.7,5.7l0,0  C767.7,567.8,765.1,570.4,761.9,570.4z"/>
<g class="st0">
	<path class="st2" d="M450.7,581.6c-0.3,0-0.6,0-1-0.1c-0.6,0-1.1-0.1-1.6,0s-1.1,0-1.6,0h-0.4c-0.4,0.1-0.5-0.1-0.5-0.4   c0-0.2-0.1-0.4-0.1-0.7c0-0.3,0-0.5-0.1-0.7v-0.1c0-0.5-0.1-0.9-0.1-1.3c0-0.4,0-0.9-0.1-1.3c0-0.5-0.1-0.9,0-1.3   c0-0.4,0-0.9,0-1.3c0-0.3-0.1-0.5,0-0.8c0-0.3,0-0.5,0-0.8c0-0.3-0.1-0.5,0-0.8c0-0.3,0-0.5-0.1-0.8c0-0.2-0.1-0.4,0-0.6   c0-0.2,0-0.4-0.1-0.6c0-0.3,0-0.6,0-0.8c0-0.3-0.1-0.6-0.1-0.8c0-0.2,0-0.4-0.1-0.7c0-0.2-0.1-0.5-0.1-0.7c0-0.2,0-0.4-0.1-0.6   l-0.1-0.6c0-0.3-0.1-0.5-0.1-0.8c0-0.3-0.1-0.5-0.1-0.7c0-0.1-0.1-0.3,0-0.4c0-0.1,0-0.3,0-0.4c0,0-0.1-0.1-0.1-0.1s0-0.1-0.1-0.2   c0-0.1,0-0.2-0.1-0.2c-0.1,0-0.2,0.1-0.2,0.2c-0.1,0.3-0.2,0.5-0.2,0.6c-0.1,0.3-0.2,0.6-0.2,0.8c-0.1,0.3-0.1,0.6-0.2,0.8   c-0.1,0.3-0.2,0.5-0.3,0.7c-0.1,0.2-0.2,0.5-0.3,0.7l-0.3,1l-0.3,1c-0.1,0.5-0.2,0.9-0.4,1.3c-0.1,0.3-0.2,0.5-0.2,0.8   c-0.1,0.3-0.1,0.5-0.2,0.8c-0.1,0.3-0.2,0.5-0.3,0.8c-0.1,0.3-0.2,0.5-0.3,0.8c-0.1,0.3-0.2,0.6-0.3,0.8c-0.1,0.3-0.2,0.5-0.3,0.9   c0,0.2-0.2,0.4-0.3,0.8c-0.2,0.4-0.3,0.7-0.3,0.9c0,0.1,0,0.1,0,0.2c0,0,0,0.1,0,0.2c-0.2,0.4-0.4,0.8-0.4,1.1c0,0,0,0.1-0.1,0.3   c-0.1,0.2-0.2,0.3-0.2,0.5c0,0.2-0.1,0.4-0.2,0.6c0,0.1,0,0.2-0.1,0.3c-0.1,0.2-0.2,0.3-0.2,0.5c0,0.2-0.1,0.4-0.2,0.6v0.2   c0,0.1,0,0.2,0,0.3c-0.1,0.1-0.2,0.2-0.3,0.2c-0.2,0-0.4,0-0.6,0.1s-0.4,0-0.6,0c-0.3-0.1-0.5-0.1-0.8-0.1c-0.3,0-0.6,0-0.8,0   c-0.2,0-0.4,0-0.6,0c-0.2,0-0.3,0.1-0.5,0.1s-0.3,0-0.5,0c-0.2,0-0.3,0-0.5,0c-0.1,0-0.2-0.1-0.3-0.2c-0.1-0.1-0.1-0.2-0.1-0.3   c0.1-0.1,0.1-0.2,0.1-0.3s-0.1-0.2-0.1-0.3c0-0.1-0.1-0.3-0.1-0.4c0-0.1-0.1-0.3-0.2-0.3c-0.1-0.1-0.1-0.1-0.1-0.2   c0,0,0-0.1-0.1-0.2c0-0.2-0.1-0.4-0.1-0.5c0-0.1-0.1-0.3-0.2-0.4c-0.1-0.2-0.2-0.5-0.3-0.9c-0.1-0.2-0.2-0.4-0.2-0.6   c-0.1-0.2-0.1-0.4-0.2-0.6c-0.1-0.2-0.2-0.4-0.2-0.6c-0.1-0.2-0.1-0.4-0.2-0.6c-0.2-0.4-0.3-0.7-0.3-1c-0.1-0.3-0.2-0.6-0.3-0.8   s-0.2-0.6-0.3-0.8c-0.1-0.2-0.2-0.4-0.2-0.6c0-0.2-0.1-0.4-0.2-0.6c-0.1-0.2-0.2-0.4-0.2-0.7c-0.1-0.2-0.1-0.5-0.2-0.7   c-0.2-0.4-0.3-0.9-0.3-1.3c-0.1-0.2-0.2-0.4-0.2-0.7c-0.1-0.3-0.1-0.5-0.2-0.8c0-0.3-0.1-0.5-0.2-0.7c-0.1-0.2-0.2-0.5-0.3-0.7   l-0.6-2.1c0-0.1,0-0.3-0.1-0.5c0-0.1-0.2-0.1-0.3-0.1c-0.1,0-0.1,0.1-0.1,0.2c0,0.1-0.1,0.2-0.1,0.4c0,0.2,0,0.4-0.1,0.5   c0,0.1-0.1,0.3-0.1,0.5c0,0.3,0,0.6-0.1,0.8c0,0.1-0.1,0.2-0.1,0.3c0,0.1,0,0.3-0.1,0.4c0,0.1-0.1,0.2-0.1,0.3c0,0.1,0,0.3-0.1,0.4   c0,0.2-0.1,0.3,0,0.5c0,0.2,0,0.3-0.1,0.5c0,0.1-0.1,0.3,0,0.4c0,0.1,0,0.3,0,0.4c0,0.2,0,0.3,0,0.4s-0.1,0.3-0.1,0.4   c0,0.1,0,0.3,0,0.4c0,0.1,0,0.3-0.1,0.4v0.1c0,0.3,0,0.5-0.1,0.8s0,0.5,0,0.8c0,0.4,0,0.7,0,1.1c0,0.4-0.1,0.7-0.1,1.1   c0,0.3-0.1,0.7,0,1.1c0,0.4,0,0.7,0,1.1c0,0.4-0.1,0.8-0.1,1.2v1.3c-0.1,0.2-0.1,0.4-0.1,0.6s0,0.4-0.1,0.6c0,0,0,0.1,0,0.1   c0,0.2,0,0.4-0.1,0.6c0,0.2-0.1,0.4-0.1,0.6c0,0.3-0.1,0.5-0.4,0.4c-0.2,0-0.3,0-0.5,0s-0.3,0-0.4,0h-0.8h-0.8   c-0.4,0-0.6,0-0.8,0.1c-0.7,0.1-1.4,0.1-2.1,0.1c-0.7,0-1.4,0-2.1,0c-0.1,0-0.3,0-0.4-0.1c-0.1,0-0.2-0.1-0.3-0.1   c-0.1,0-0.2-0.1-0.3-0.2c-0.1-0.1-0.1-0.2,0-0.3c0-0.1,0.1-0.3,0.1-0.6c0-0.5,0.1-1.1,0.2-1.7v-0.1c0-0.3,0-0.5,0-0.7   c0-0.2,0.1-0.5,0.1-0.7v-0.8c0-0.3,0-0.5,0.1-0.8c0-0.2,0.1-0.4,0.1-0.7c0-0.2,0-0.4,0.1-0.7c0-0.2,0-0.3,0.1-0.5   c0-0.1,0.1-0.3,0.1-0.5c0-0.6,0-1.2,0.1-1.9c0-0.2,0.1-0.3,0.1-0.5v-0.6c0-0.3,0-0.5,0-0.8c0-0.3,0.1-0.5,0.1-0.8   c0-0.3,0.1-0.7,0.1-1s0-0.7,0.1-1c0-0.3,0.1-0.6,0.1-0.9v-0.9c0-0.3,0.1-0.5,0.1-0.8c0-0.3,0.1-0.5,0.1-0.8v-0.6   c0-0.2,0-0.4,0.1-0.6c0-0.3,0.1-0.6,0.1-0.9s0-0.6,0.1-0.9v-0.3c0-0.7,0.1-1.4,0.2-2.1v-0.1c0-0.4,0-0.8,0.1-1.2c0-0.4,0-0.8,0-1.2   c0-0.2,0-0.5,0.1-0.8c0-0.2,0.1-0.4,0.1-0.5c0-0.1,0.1-0.3,0.1-0.5V553c0-0.2,0-0.3,0.1-0.5c0-0.2,0.1-0.4,0.1-0.8   c0-0.5,0.1-1,0.3-1.5v-0.3v-1.8c0-0.2,0.1-0.3,0.2-0.4c0.1-0.1,0.3-0.1,0.4,0c0,0,0.1,0,0.1,0c0,0,0.1,0,0.1,0c0.4,0,0.7,0,1,0   s0.7,0,1,0c0.5,0,1.1,0.1,1.6,0c0.5,0,1.1,0,1.6,0c0.4,0.1,0.8,0.1,1.1,0.1c0.4-0.1,0.7-0.1,1.1-0.1c0.4,0,0.7,0,1.1,0   c0.4,0,0.8,0,1.2,0.1c0.4,0,0.8,0,1.2,0c0.2,0,0.4,0.1,0.5,0.4l0.2,0.4c0.1,0.1,0.1,0.3,0.2,0.5c0.1,0.2,0.2,0.5,0.4,0.9   c0,0.2,0.1,0.3,0.2,0.5c0.1,0.1,0.1,0.3,0.1,0.5c0.2,0.3,0.3,0.6,0.4,0.9c0.1,0.3,0.2,0.6,0.3,0.9c0.1,0.2,0.1,0.4,0.2,0.7   c0,0.2,0.1,0.5,0.2,0.7c0.1,0.3,0.1,0.4,0.1,0.6l0.4,1.5c0.1,0.3,0.2,0.6,0.3,0.8l0.3,0.8c0.1,0.4,0.2,0.8,0.3,1.2   c0.1,0.4,0.2,0.8,0.3,1.2c0.1,0.2,0.2,0.5,0.3,0.8c0,0.2,0.1,0.3,0.3,0.3c0.1,0,0.2,0,0.3-0.3l0.1-0.4c0-0.1,0.1-0.3,0.1-0.4   c0.1-0.3,0.2-0.7,0.3-1.1c0.1-0.4,0.2-0.7,0.3-1.1c0-0.2,0.1-0.4,0.1-0.6c0-0.2,0.1-0.4,0.2-0.6c0.3-0.6,0.5-1.2,0.6-1.9   c0-0.2,0.1-0.4,0.1-0.5c0-0.1,0.1-0.3,0.1-0.5c0.1-0.5,0.2-0.9,0.4-1.3c0.2-0.4,0.3-0.9,0.5-1.3c0-0.2,0.1-0.3,0.1-0.5   c0-0.1,0.1-0.3,0.1-0.5c0.1-0.2,0.2-0.4,0.3-0.6c0.1-0.2,0.2-0.4,0.3-0.6c0.1-0.2,0.2-0.4,0.2-0.5c0.1-0.1,0.1-0.3,0.2-0.5   c0.1-0.3,0.3-0.4,0.5-0.4c0.5,0,1.1,0,1.6,0s1.1-0.1,1.6,0c0.1,0,0.3,0,0.5,0s0.3,0,0.5,0c0.4,0.1,0.6,0.1,0.9,0.1   c0.5-0.1,1-0.1,1.5-0.1c0.5,0,1.1,0,1.6,0c0.4,0,0.9-0.1,1.3-0.1h1.3c0.2,0,0.3,0,0.3-0.1c0.4,0,0.6,0.1,0.6,0.4   c0,0.3,0.1,0.5,0,0.7c0,0.2,0,0.5,0,0.7c0,0.2,0.1,0.3,0.1,0.5c0,0.1,0,0.3,0.1,0.4c0,0.2,0.1,0.4,0.1,0.7c0,0.2,0,0.5,0,0.7   c0,0.2,0.1,0.4,0.1,0.7c0,0.3,0.1,0.5,0.1,0.7c0,0.3,0,0.6,0.1,0.8c0,0.2,0.1,0.3,0.1,0.5c0,0.2,0.1,0.3,0.1,0.5v0.3   c0,0.2,0,0.3,0,0.5c0,0.1,0,0.3,0,0.4c0,0.3,0,0.6,0.1,0.9c0,0.3,0.1,0.6,0.1,0.9c0,0.2,0.1,0.3,0,0.5c0,0.1,0,0.3,0,0.5   c0,0.2,0.1,0.4,0.1,0.6v0.6c0,0.1,0,0.2,0,0.3c0,0.1,0,0.2,0,0.3c0,0.1,0.1,0.3,0.1,0.6c0.1,0.3,0.1,0.5,0.1,0.8c0,0.3,0,0.5,0,0.8   c0,0.2,0,0.3,0,0.4c0,0.1,0,0.3,0,0.4c0,0.1,0,0.2,0,0.2c0,0.1,0,0.1,0,0.2c0,0.1,0,0.2,0,0.3c0,0.1,0,0.2,0.1,0.3v0.3   c0,0.2,0,0.3,0,0.5c0,0.2,0,0.4,0,0.6c0.1,0.3,0.1,0.6,0.1,0.8c0,0.3,0,0.6,0,0.8c0.1,0.2,0.1,0.3,0.1,0.5c0,0.1,0,0.3,0.1,0.4v0.3   c0,0.3,0,0.6,0,0.9c0,0.3,0.1,0.6,0.1,0.9c0,0.2,0.1,0.4,0.1,0.7c0,0.2,0.1,0.5,0.1,0.7c0,0.2,0.1,0.3,0.1,0.5v0.6   c0,0.5,0.1,1,0.2,1.5v0.1c0,0.2,0,0.4,0,0.6c0.1,0.2,0.1,0.4,0,0.6c0,0.3,0,0.6,0.1,0.8c0,0.3,0.1,0.5,0.1,0.8c0,0.2,0.1,0.3,0,0.5   c0,0.1,0,0.3,0,0.5c0,0.2,0,0.3,0.1,0.4c0,0.2,0.1,0.4,0.1,0.7c0,0.2,0.1,0.5,0.1,0.7c0,0.1,0,0.2,0,0.3c0,0.1,0,0.2,0,0.3   c0.1,0.3,0,0.5-0.5,0.6c-0.4,0.1-0.7,0.1-1.1,0.1c-0.4,0-0.7,0-1.1,0H450.7z"/>
	<path class="st2" d="M477.8,581.6c-0.3,0-0.6,0-0.9,0s-0.6-0.1-0.9-0.1c-0.1,0-0.3-0.1-0.4-0.1c-0.2,0-0.3,0-0.5-0.1   c-0.2,0-0.4,0-0.5-0.1c-0.2,0-0.4-0.1-0.5-0.1c-0.4-0.1-0.7-0.2-1-0.3c-0.3-0.1-0.6-0.2-1-0.3c-0.1,0-0.2,0-0.2-0.1   c-0.1,0-0.1-0.1-0.2-0.1c-0.2-0.1-0.4-0.2-0.6-0.3c-0.2-0.1-0.4-0.2-0.5-0.3c-0.8-0.4-1.7-0.8-2.5-1.2c-0.2-0.1-0.4-0.2-0.6-0.3   c-0.2-0.1-0.3-0.3-0.5-0.4c-0.2-0.1-0.3-0.2-0.5-0.3c-0.1-0.1-0.3-0.2-0.4-0.4c-0.4-0.3-0.7-0.7-1-1c-0.3-0.3-0.6-0.7-0.9-1.1   c-0.4-0.5-0.7-1-1.1-1.5c-0.4-0.5-0.6-1.1-0.9-1.7c-0.5-1-0.9-2.1-1.2-3.1l-0.3-0.9c-0.1-0.3-0.2-0.6-0.3-0.9V567   c-0.1-0.5-0.2-1.2-0.1-1.9v-0.5c0-0.1,0-0.3,0.1-0.5c0-0.1,0-0.2,0-0.3c0-0.1,0-0.3,0-0.4c0-0.3,0-0.5,0.1-0.6c0-0.1,0.1-0.3,0-0.4   c0-0.1,0-0.3,0-0.4c0.1-0.6,0.2-1.1,0.3-1.7c0.1-0.5,0.3-1.1,0.5-1.6c0.2-0.5,0.4-1,0.8-1.5l0.3-0.5c0.1-0.2,0.2-0.3,0.3-0.4   c0.2-0.2,0.4-0.4,0.6-0.7c0.2-0.2,0.3-0.5,0.5-0.7c0.2-0.2,0.4-0.4,0.6-0.6c0.2-0.2,0.4-0.4,0.6-0.6c0.3-0.3,0.5-0.6,0.9-0.8   c0.2-0.1,0.4-0.3,0.7-0.6c0.5-0.5,1.1-0.9,1.7-1.2c0.4-0.2,0.8-0.4,1.2-0.7c0.4-0.3,0.8-0.5,1.2-0.6c0.3-0.1,0.6-0.3,0.9-0.4   c0.3-0.1,0.6-0.2,0.9-0.3c0.2,0,0.3-0.1,0.5-0.1c0.1,0,0.3-0.1,0.5-0.2c0.2-0.1,0.4-0.1,0.6-0.2c0.2,0,0.4-0.1,0.6-0.1   c0.4-0.1,0.7-0.1,1-0.2c0.3,0,0.7-0.1,1-0.2c0.1,0,0.3-0.1,0.6-0.1c0.3,0,0.5-0.1,0.8-0.2c0.3-0.1,0.6-0.1,0.9,0   c0.2,0,0.4,0.1,0.5,0.1c0.2,0,0.4,0,0.6,0.1c0.1,0,0.2,0,0.3,0c0.1,0,0.3,0,0.4,0c0.4,0,0.8,0.1,1.2,0.2c0.4,0.1,0.7,0.2,1.1,0.3   c0.3,0.1,0.5,0.2,0.8,0.3c0.2,0.1,0.5,0.2,0.7,0.3c0.5,0.2,0.9,0.4,1.4,0.6c0.4,0.2,0.9,0.4,1.3,0.6c0.7,0.3,1.2,0.5,1.6,0.8l1,0.8   c0.3,0.2,0.5,0.4,0.8,0.7s0.5,0.5,0.7,0.7c0.3,0.3,0.5,0.6,0.8,0.9c0.2,0.3,0.5,0.6,0.7,0.9c0.2,0.3,0.3,0.5,0.5,0.8   c0.2,0.3,0.3,0.5,0.4,0.8c0.2,0.2,0.3,0.4,0.4,0.7c0.1,0.3,0.2,0.5,0.3,0.7c0.1,0.3,0.3,0.6,0.4,0.9c0.1,0.3,0.2,0.6,0.3,0.9   c0.1,0.3,0.2,0.5,0.2,0.8c0.1,0.3,0.1,0.5,0.2,0.8c0,0.2,0.1,0.3,0.1,0.5s0,0.4,0.1,0.6c0.1,0.4,0.1,0.8,0.1,1.1c0,0.4,0,0.8,0,1.2   c0,0.2,0,0.5-0.1,0.9c0,0.2-0.1,0.4-0.1,0.7c-0.1,0.3-0.2,0.7-0.2,1s-0.1,0.7-0.2,1c0,0.2-0.1,0.3-0.1,0.5c0,0.1-0.1,0.3-0.1,0.5   c0,0.2-0.1,0.4-0.1,0.7c0,0.2-0.1,0.5-0.1,0.7c-0.1,0.4-0.2,0.7-0.4,1.1c-0.2,0.4-0.3,0.7-0.5,1c-0.1,0.2-0.1,0.3-0.1,0.4   c0,0.1,0,0.1-0.1,0.2c-0.2,0.2-0.4,0.4-0.6,0.7c-0.2,0.3-0.3,0.5-0.6,0.7c-0.3,0.3-0.5,0.6-0.7,0.9c-0.2,0.3-0.5,0.6-0.8,0.9   c-0.2,0.3-0.5,0.5-0.7,0.7c-0.1,0.1-0.2,0.1-0.2,0.1c-0.2,0.3-0.5,0.6-0.8,0.8c-0.3,0.2-0.6,0.4-0.9,0.6c-0.3,0.2-0.6,0.4-0.9,0.5   c-0.3,0.1-0.6,0.3-0.8,0.5c-0.3,0.2-0.5,0.3-0.8,0.4c-0.3,0.1-0.5,0.2-0.8,0.3c-0.6,0.2-1.3,0.4-2.1,0.6c-0.1,0-0.2,0.1-0.3,0   c-0.1,0-0.2,0-0.3,0.1c-0.3,0-0.6,0.1-0.9,0.1l-0.8,0.1c-0.4,0-0.8,0.1-1.2,0.1h-1.2H477.8z M487.3,563.5c0-0.2-0.1-0.5-0.1-0.7   l-0.1-0.5c0-0.2-0.1-0.3-0.2-0.5c-0.1-0.2-0.2-0.4-0.3-0.6c-0.1-0.2-0.2-0.4-0.4-0.6c-0.2-0.2-0.4-0.4-0.6-0.7   c-0.2-0.3-0.3-0.5-0.6-0.7c-0.4-0.4-0.8-0.8-1.2-1.1c-0.1-0.1-0.2-0.1-0.2-0.2c-0.1,0-0.1-0.1-0.2-0.2c-0.8-0.6-1.7-1-2.5-1.3   c-0.6-0.2-1.1-0.3-1.6-0.3c-0.2,0-0.3,0-0.5,0c-0.1,0-0.3,0.1-0.4,0.1c-0.6,0-1.2,0-2,0.1c-0.2,0-0.4,0.1-0.6,0.1   c-0.2,0-0.3,0.1-0.6,0.1c-0.3,0.1-0.5,0.2-0.8,0.3c-0.3,0.1-0.5,0.3-0.8,0.4c-0.3,0.1-0.5,0.3-0.8,0.4c-0.2,0.2-0.5,0.4-0.7,0.6   c-0.1,0.1-0.2,0.3-0.3,0.4c-0.1,0.1-0.2,0.3-0.4,0.4l-0.4,0.5c-0.1,0.2-0.3,0.4-0.4,0.6c-0.1,0.1-0.2,0.2-0.2,0.3   c-0.1,0.1-0.1,0.3-0.2,0.4c-0.2,0.5-0.4,0.9-0.5,1.3c0,0.2-0.1,0.3-0.1,0.4c0,0.1,0,0.3,0,0.4c-0.1,0.3-0.2,0.6-0.2,0.8   c0,0.3-0.1,0.5-0.1,0.8v0.2c-0.1,0.2-0.1,0.4-0.1,0.6l0.1,0.6c0,0.6,0.2,1.3,0.5,1.9c0.2,0.5,0.5,0.9,0.8,1.4s0.6,0.8,1,1.2   l0.6,0.6c0.2,0.2,0.3,0.3,0.4,0.3c0.2,0.1,0.4,0.3,0.6,0.4c0.2,0.1,0.4,0.3,0.6,0.4c0.1,0.1,0.2,0.2,0.3,0.3   c0.2,0.1,0.3,0.2,0.5,0.3c0.2,0.1,0.3,0.2,0.6,0.3c0.2,0.1,0.4,0.1,0.7,0.2c0.2,0,0.4,0.1,0.7,0.2c0.2,0.1,0.5,0.1,0.7,0.1   c0.2,0,0.5,0,0.7,0.1c0.1-0.1,0.3-0.1,0.4-0.1c0.1,0,0.3,0,0.4,0l0.8-0.1c0.3,0,0.5-0.1,0.7-0.1c0.6-0.1,1-0.3,1.3-0.6l0.1-0.1   l0.5-0.2c0.1-0.1,0.3-0.1,0.4-0.2c0.2-0.2,0.5-0.4,0.7-0.6c0.3-0.2,0.5-0.4,0.7-0.6c0.6-0.5,1.1-1.1,1.6-1.8   c0.2-0.2,0.3-0.4,0.5-0.7c0.2-0.2,0.3-0.5,0.4-0.8c0.5-1.1,0.7-2.4,0.8-3.7C487.4,563.9,487.3,563.7,487.3,563.5z"/>
	<path class="st2" d="M512.9,581.4c-0.3,0-0.5,0-0.8,0c-0.2,0.1-0.5,0.1-0.8,0h-1.3c-0.2,0-0.3,0-0.5-0.1c-0.2,0-0.3-0.1-0.4-0.1   c-0.2,0-0.3-0.1-0.5-0.4c-0.1-0.2-0.2-0.4-0.2-0.7c-0.1-0.3-0.1-0.5-0.2-0.7c-0.4-0.8-0.7-1.8-1.1-2.8c-0.2-0.6-0.4-1.2-0.6-1.7   c-0.2-0.5-0.4-1.1-0.6-1.7c-0.1-0.4-0.3-0.8-0.5-1.2c-0.2-0.4-0.4-0.8-0.5-1.2c-0.1-0.2-0.2-0.4-0.2-0.6c-0.1-0.2-0.1-0.4-0.2-0.6   c-0.1-0.3-0.2-0.6-0.3-0.9c-0.1-0.3-0.2-0.6-0.3-0.9l-0.3-1l-0.3-1c-0.1-0.2-0.2-0.4-0.2-0.7c0-0.2-0.1-0.5-0.2-0.7   c-0.1-0.3-0.2-0.7-0.3-1s-0.2-0.7-0.3-1.1c-0.2-0.5-0.3-0.9-0.5-1.4c-0.2-0.5-0.3-1-0.4-1.4l-0.4-1.5c-0.1-0.5-0.3-1-0.5-1.4   c-0.1-0.2-0.1-0.4-0.2-0.6c0-0.2-0.1-0.4-0.2-0.6l-1.2-3.4l-0.6-1.5l-0.4-1.3c0,0,0-0.1,0-0.1c0,0,0-0.1,0-0.2   c-0.2-0.3-0.1-0.6,0.3-0.8c0.1,0,0.3-0.1,0.5-0.1h1.9c0.3,0,0.5,0,0.8-0.1c0.3,0,0.5-0.1,0.8-0.1c0.1,0,0.3,0.1,0.4,0.1   c0.1,0,0.3,0,0.5,0.1c0.1,0,0.2,0.1,0.3,0.1c0.3,0,0.5,0.1,0.8,0.1c0.3,0,0.5,0.1,0.7,0.1c0.3,0.1,0.6,0.1,0.8,0   c0.1,0,0.3,0,0.5,0.1c0.1,0,0.2,0.2,0.3,0.4c0.1,0.3,0.2,0.6,0.3,0.9c0.1,0.3,0.2,0.6,0.3,0.8c0.1,0.3,0.2,0.6,0.3,0.9   s0.2,0.6,0.3,0.9c0.3,0.7,0.5,1.4,0.8,2.2c0.2,0.8,0.5,1.5,0.8,2.2c0.1,0.2,0.2,0.4,0.2,0.6c0.1,0.2,0.1,0.4,0.2,0.6   c0.2,0.5,0.3,1,0.5,1.5c0.2,0.5,0.3,1,0.4,1.6c0.1,0.3,0.2,0.7,0.3,1.1c0.1,0.4,0.3,0.7,0.4,1.1c0.1,0.3,0.2,0.5,0.3,0.8   c0.1,0.3,0.2,0.5,0.3,0.8l0.4,1l0.4,1c0,0.1,0.1,0.2,0.1,0.3c0,0.1,0.1,0.2,0.2,0.3c0.1,0.2,0.2,0.2,0.2,0.2c0.1,0,0.2-0.1,0.3-0.1   s0.2,0,0.2-0.1c0.1-0.1,0.1-0.3,0.2-0.4c0-0.1,0.1-0.3,0.2-0.4c0.1-0.3,0.2-0.6,0.3-0.9s0.2-0.6,0.3-0.9c0.3-0.5,0.5-1,0.6-1.5   c0.2-0.5,0.4-1.1,0.6-1.6c0.2-0.5,0.4-1.1,0.6-1.6c0.1-0.3,0.2-0.6,0.3-0.9l0.3-0.9c0.1-0.2,0.1-0.4,0.2-0.6s0.1-0.3,0.2-0.5   c0.1-0.3,0.2-0.6,0.3-0.9c0.1-0.3,0.2-0.6,0.3-0.9c0.1-0.2,0.2-0.4,0.3-0.6c0.1-0.1,0.2-0.3,0.3-0.6c0.3-0.6,0.6-1.3,0.8-1.9   c0.2-0.6,0.4-1.3,0.6-1.9l0.6-1.3c0-0.1,0.1-0.2,0.1-0.2s0-0.1,0.1-0.2c0.1-0.1,0.2-0.3,0.4-0.4c0.2-0.1,0.3-0.2,0.5-0.1   c0.1,0.1,0.3,0.1,0.4,0.1c0.2,0,0.3,0,0.4,0c0.2,0,0.4,0,0.5,0.1c0.1,0.1,0.3,0.1,0.4,0.1c0.1,0,0.3,0,0.4,0.1h1.2   c0.3-0.1,0.5-0.1,0.8-0.1c0.2,0,0.5,0,0.8,0c0.1,0,0.2,0,0.2-0.1c0.1,0,0.1-0.1,0.2-0.1c0.1,0,0.2,0.1,0.3,0c0.1,0,0.2,0,0.3,0   c0.2,0,0.4-0.1,0.8-0.1h0.6c0.2,0,0.4,0.2,0.5,0.4v0.3l-0.3,0.9c-0.1,0.3-0.2,0.6-0.3,0.9c-0.2,0.4-0.3,0.8-0.3,1   c0,0.2-0.1,0.4-0.1,0.7c0,0.2-0.1,0.5-0.2,0.7c-0.1,0.3-0.3,0.6-0.4,0.9c-0.1,0.3-0.2,0.6-0.3,0.9c-0.1,0.4-0.2,0.7-0.4,1.1   c-0.2,0.3-0.3,0.7-0.4,1c-0.1,0.3-0.2,0.6-0.3,0.8c-0.1,0.3-0.3,0.6-0.4,0.8c-0.1,0.2-0.1,0.3-0.2,0.5c0,0.1-0.1,0.3-0.2,0.5   c0,0.2-0.1,0.4-0.2,0.5c-0.1,0.1-0.2,0.3-0.3,0.5c-0.1,0.2-0.2,0.4-0.2,0.7s-0.1,0.5-0.2,0.7s-0.2,0.4-0.3,0.7   c-0.1,0.2-0.2,0.5-0.3,0.7c-0.1,0.3-0.2,0.7-0.3,1c-0.1,0.3-0.2,0.6-0.3,1c-0.1,0.4-0.3,0.8-0.4,1.3c-0.2,0.4-0.3,0.8-0.4,1.3   c-0.1,0.2-0.2,0.4-0.2,0.6c0,0.2-0.1,0.4-0.2,0.6c-0.1,0.3-0.2,0.6-0.3,0.8c-0.1,0.3-0.2,0.5-0.3,0.8c-0.1,0.3-0.2,0.6-0.3,0.9   c-0.1,0.3-0.2,0.6-0.3,0.9c-0.1,0.3-0.2,0.7-0.4,1c-0.2,0.3-0.3,0.7-0.4,1c-0.1,0.3-0.2,0.5-0.3,0.7c-0.1,0.2-0.2,0.5-0.3,0.7   c-0.2,0.4-0.4,0.9-0.7,1.6c-0.1,0.3-0.2,0.6-0.3,0.8c-0.1,0.3-0.2,0.6-0.3,0.8c-0.2,0.5-0.3,1-0.5,1.6c0,0.2-0.1,0.4-0.3,0.6   c-0.2,0.1-0.4,0.1-0.5,0.1h-2.2H512.9z"/>
	<path class="st2" d="M535.8,569.9c-0.1-0.7-0.1-1.3-0.1-1.9s0-1.3,0-1.9c0-0.4-0.1-0.8,0-1.2c0-0.4,0-0.8,0-1.2c0-0.3,0-0.5,0-0.7   c0-0.2,0.1-0.4,0.1-0.7c0-0.4,0-0.6,0.1-0.8c0.1-1.2,0.1-2.4,0.1-3.7c0-1.2,0-2.5,0-3.7c0-0.7,0.1-1.3,0-2c0-0.7,0-1.3,0-2   c0-0.2,0-0.3,0-0.5c0-0.1,0-0.3,0-0.4c0-0.2-0.1-0.5-0.1-0.8c0-0.1,0-0.3,0.1-0.4s0.2-0.2,0.4-0.2h0.3c0.1,0.1,0.3,0.1,0.4,0.1   c0.1,0,0.3,0,0.4,0h3.8c0.2,0,0.3,0,0.5-0.1c0.1,0,0.3-0.1,0.5-0.1h1.8c0.2,0,0.4,0.1,0.5,0.2c0.1,0.1,0.1,0.3,0,0.5   c0,0.1,0,0.2,0,0.3s0,0.2,0,0.3v0.9c0,0.3,0,0.6,0.1,0.9c0,0.5,0,1.1,0,1.6c0,0.4-0.1,0.8,0,1.2s0,0.8,0,1.2c0,0.5-0.1,1.1,0,1.6   c0,0.5,0,1.1,0,1.7c0,0.3-0.1,0.7,0,0.9c0,0.3,0,0.6,0,0.9c-0.1,0.4-0.1,0.8-0.1,1.2s0,0.8,0,1.2v0.7c0,0.2,0,0.5,0.1,0.7   c0,0.3,0.1,0.5,0.1,0.8v0.8v6.1c0,0.4,0,0.6,0.1,0.8c0,0.2,0.1,0.3,0,0.4c0,0.1,0,0.3,0.1,0.4v0.1c0,0.5,0,1.1,0.1,1.6   c0,0.5,0,1,0,1.5c0,0.3-0.1,0.6,0,0.9c0,0.3,0,0.6-0.1,0.9c0,0.3-0.1,0.7,0,1.1s0,0.8,0,1.1c0,0.3,0,0.5,0.1,0.7   c0,0.1,0.1,0.2,0.1,0.3c-0.1,0.3-0.3,0.5-0.5,0.4h-0.3c-0.4,0-0.8,0-1.2,0c-0.4,0-0.8,0-1.2,0c-0.3,0-0.5,0-0.8,0   c-0.2,0-0.5,0-0.8,0c-0.4,0-0.7-0.1-1-0.1c-0.3,0-0.6,0-0.9-0.1h-0.6c-0.2,0-0.4,0-0.6,0.1c-0.3,0.1-0.5-0.1-0.6-0.4   c-0.1-0.3-0.1-0.4-0.1-0.6c0-0.6-0.1-1.2,0-1.8s0-1.2,0-1.8c0-0.3-0.1-0.6,0-0.9c0-0.3,0-0.6,0-0.9c-0.1-0.5-0.1-1.1-0.1-1.5   c0-0.5,0-1,0-1.4V569.9z"/>
	<path class="st2" d="M551.6,578.1c0-0.5,0-1,0.1-1.5c0.1-0.5,0.1-1,0-1.5c0-0.5-0.1-0.9,0-1.4c0-0.5,0-1,0-1.5c0-0.2,0-0.4,0.1-0.6   c0-0.2,0.1-0.4,0.1-0.6c0-0.4,0-0.8,0-1.3c0-0.2,0-0.5-0.1-0.9c0-0.2,0-0.4-0.1-0.5c-0.1-0.5-0.1-0.9-0.1-1.4c0-0.4,0-0.9,0-1.4   c0-0.2-0.1-0.4,0-0.6c0-0.2,0-0.4,0-0.6c-0.1-0.4-0.1-0.8-0.1-1.1s0-0.8,0-1.2c-0.1-1.3-0.1-2.6,0-4v-1c0-0.4,0-0.7,0.1-1   c0.1-0.7,0.1-1.4,0.1-2c0-0.6,0-1.3,0-2c-0.1-0.5-0.1-1.1-0.1-1.6c0-0.5,0-1.1,0-1.6v-0.3c0-0.3,0.1-0.4,0.4-0.4c0.1,0,0.3,0,0.4,0   c0.2,0,0.3,0,0.4,0.1h0.3c0.4,0,0.7,0,1,0c0.3,0,0.6,0,1,0c0.4,0,0.8-0.1,1.3-0.2h0.3c0.3,0,0.6,0,0.9,0c0.3,0,0.6,0,0.9,0   c0.2,0,0.5,0,1,0.1h0.1c0.4,0,0.7,0.1,1,0.1c0.3,0,0.7,0,1-0.1c0.4-0.1,0.8-0.1,1.2-0.1h1.2c0.1,0,0.3,0,0.4,0c0.1,0,0.2,0,0.4,0   c0.3,0,0.5,0,0.7,0.1c0.1,0,0.2,0.1,0.3,0c0.1,0,0.2,0,0.3,0c0.7,0,1.3,0,2,0c0.7,0,1.3,0,2,0c0.6,0,1.3-0.1,1.9,0c0.7,0,1.3,0,2,0   c0.1,0,0.2,0,0.2,0c0.1,0,0.1,0,0.2,0c0.5,0,0.8,0.3,0.7,0.8c0,0.1-0.1,0.4-0.1,0.7c0,0.1,0,0.2,0,0.3c0,0.1,0,0.2,0,0.3   c0,0.1-0.1,0.2-0.1,0.4v4.9c0,0.3-0.1,0.5-0.3,0.6c-0.1,0.1-0.2,0.1-0.2,0.1s-0.1,0-0.2,0.1c-0.2,0-0.5,0.1-1,0.1h-1.2   c-0.6,0-1.2-0.1-1.9-0.1h-1.9c-0.2,0-0.4,0-0.8-0.1c-0.1,0-0.2,0-0.2,0c-0.1,0-0.1,0-0.2,0c-0.2,0.1-0.5,0.1-0.7,0.1   c-0.2,0-0.5,0-0.7,0c-0.4,0-0.7,0.1-1.1,0.1H563h-1.5c-0.2,0-0.5-0.1-1-0.1c-0.1,0-0.2,0-0.4,0.1c-0.2,0.3-0.3,0.5-0.3,0.6   c0,0.3,0.1,0.5,0,0.8c0,0.3,0,0.5,0,0.8c0,0.3,0.1,0.6,0,0.8s0,0.6,0,0.8c0,0.6,0.3,0.8,0.9,0.7c0.4-0.1,0.7-0.1,0.9-0.1   c0.1,0,0.3,0,0.4-0.1c0.1,0,0.3-0.1,0.4-0.1c0.1,0,0.3,0,0.4,0c0.1,0,0.2,0,0.3,0c0.1,0,0.2-0.1,0.3-0.1c0.3,0,0.5,0,0.8,0   s0.5,0,0.8,0c0.4,0,0.9-0.1,1.3-0.1h1.4c0.2,0,0.4,0.1,0.7,0.1h0.7c0.2,0,0.3,0,0.4-0.1c0.2,0,0.4,0,0.6,0.1   c0.2,0.1,0.2,0.3,0.2,0.5c0,0.1,0,0.2,0,0.2c0,0.1,0,0.1-0.1,0.2v0.1c0.1,0.3,0.1,0.5,0.1,0.8s0,0.5,0.1,0.7v0.2   c0,0.4,0.1,0.9,0.2,1.4v0.3v2.9v0.3c0,0.1,0.1,0.1,0,0.2c0,0,0,0.1,0,0.1c-0.1,0.1-0.1,0.2-0.2,0.3c0,0-0.1,0.1-0.2,0.1H568   c-0.4,0-0.7,0.1-1.1,0c-0.4,0-0.8,0-1.2,0.1c-0.5,0-1,0.1-1.5,0c-0.5,0-1,0-1.5,0c-0.3-0.1-0.6-0.1-1-0.1c-0.3,0-0.7,0-1,0   c-0.5,0-0.8,0.3-0.8,0.8c0,0.2,0,0.4,0,0.6c0,0.2,0,0.4,0,0.6c0.1,0.3,0.1,0.6,0,0.9c-0.1,0.5,0,0.9,0.1,1.3   c0.1,0.1,0.2,0.2,0.3,0.3c0.1,0,0.2,0.1,0.3,0.2h0.1c0.1,0,0.3-0.1,0.5-0.1h2.8c0.2,0,0.5,0,0.7,0.1s0.5,0,0.7,0h1.5   c0.3,0.1,0.5,0.1,0.7,0.1l1.4-0.2c0.2,0,0.3,0,0.5,0c0.2,0,0.3,0,0.6,0.1h0.3c0.5,0,1,0,1.4,0c0.5,0,0.9,0,1.4,0c0.1,0,0.3,0,0.4,0   c0.1,0,0.3,0,0.4,0c0.3-0.1,0.5,0,0.7,0.2c0.1,0.1,0.1,0.1,0.1,0.2c0,0.1,0,0.2,0,0.3c0,0.1,0,0.2,0,0.3c0,0-0.1,0-0.1,0.1   c0.1,0.2,0.1,0.4,0.1,0.7c0,0.2,0,0.5,0,0.7c0,0.4,0,0.8,0.1,1.2c0,0.4,0.1,0.8,0.1,1.2c0.1,0.3,0.1,0.6,0.1,0.9c0,0.3,0,0.6,0,0.9   c0,0.1,0,0.2-0.1,0.3c0,0.1,0,0.2,0,0.3c0,0.1,0,0.2,0,0.3c0,0.1,0,0.2,0,0.3c0,0.1-0.1,0.2-0.2,0.3l-0.2,0.2   c-0.1,0-0.2,0.1-0.3,0.1h-2.8c-0.4,0-0.7-0.1-1.1-0.1h-1.1c-0.1,0-0.2,0-0.2-0.1c-0.2-0.1-0.4-0.1-0.8-0.1h-2.2   c-0.7,0-1.5,0-2.2,0.1h-3.4c-0.2,0-0.5,0-0.7,0s-0.5-0.1-0.7-0.1c-0.2,0-0.4,0.1-0.7,0.1c-0.2,0-0.4,0-0.7,0.1c0,0-0.1,0-0.1,0   c0,0-0.1,0-0.1,0c-0.3,0-0.5,0.1-0.8,0.1h-0.9c-0.2,0-0.3,0-0.4-0.1c-0.1,0-0.2-0.1-0.3-0.1c-0.1,0-0.2,0-0.3-0.1   c-0.2,0-0.3,0-0.5,0c-0.2,0-0.3,0.1-0.5,0.1c-0.4,0-0.7,0-1,0c-0.1,0-0.2,0-0.3,0s-0.2,0-0.3,0c0,0-0.1,0-0.1,0s-0.1,0-0.1,0   c-0.3-0.1-0.4-0.3-0.4-0.5v-1.9V578.1z"/>
</g>
<path class="st1" d="M234.3,570.5h131.3c1.6,0,2.9-1.3,2.9-2.8v-5.8c0-1.6-1.3-2.9-2.9-2.9H234.2c-3.2,0-5.7,2.6-5.7,5.7v0  C228.5,567.9,231.1,570.5,234.3,570.5z"/>
<g>
	<path class="st3" d="M441,584.6c-0.4,0-0.7,0-1.1-0.1c-0.6-0.1-1.3-0.1-1.9,0c-0.6,0-1.2,0-1.9,0h-0.4c-0.4,0.1-0.6-0.1-0.6-0.5   c0-0.2-0.1-0.5-0.1-0.8c0-0.3,0-0.6-0.1-0.8v-0.1c-0.1-0.5-0.1-1.1-0.1-1.6s0-1-0.1-1.6c-0.1-0.5-0.1-1.1,0-1.6s0-1,0-1.6   c0-0.3-0.1-0.6,0-0.9c0-0.3,0-0.6,0-0.9c-0.1-0.3-0.1-0.6,0-0.9c0-0.3,0-0.6-0.1-1c0-0.2-0.1-0.5,0-0.8c0-0.2,0-0.5-0.1-0.8   c0.1-0.3,0.1-0.7,0-1c0-0.3-0.1-0.7-0.1-1c0-0.2,0-0.5-0.1-0.8c0-0.3-0.1-0.6-0.1-0.9c0-0.2,0-0.5-0.1-0.8l-0.1-0.8   c-0.1-0.3-0.1-0.6-0.1-0.9c0-0.3-0.1-0.6-0.1-0.8c-0.1-0.2-0.1-0.3,0-0.5s0-0.3,0-0.5c0-0.1-0.1-0.1-0.1-0.2s0-0.1-0.1-0.2   c0-0.2,0-0.2-0.1-0.2s-0.2,0.1-0.2,0.2c-0.1,0.3-0.2,0.5-0.2,0.7c-0.1,0.4-0.2,0.7-0.3,1c-0.1,0.3-0.2,0.7-0.3,1   c-0.1,0.3-0.2,0.6-0.3,0.9c-0.1,0.3-0.2,0.5-0.3,0.8l-0.3,1.2l-0.3,1.2c-0.1,0.5-0.2,1-0.5,1.5c-0.1,0.3-0.2,0.6-0.3,0.9   c-0.1,0.3-0.2,0.6-0.3,0.9s-0.2,0.6-0.3,0.9s-0.2,0.6-0.3,0.9c-0.1,0.3-0.2,0.7-0.3,1s-0.2,0.7-0.3,1c-0.1,0.2-0.2,0.5-0.4,0.9   c-0.2,0.5-0.3,0.9-0.4,1.1c0,0.1,0,0.2,0,0.2c0,0,0,0.1,0,0.2c-0.2,0.5-0.4,0.9-0.4,1.3c0,0-0.1,0.2-0.2,0.4   c-0.1,0.2-0.2,0.4-0.2,0.6c-0.1,0.2-0.1,0.4-0.2,0.7c0,0.1,0,0.2-0.1,0.3c-0.1,0.2-0.2,0.4-0.3,0.6s-0.1,0.4-0.2,0.7v0.2   c0.1,0.1,0,0.2,0,0.4c-0.1,0.1-0.2,0.2-0.3,0.2c-0.2,0-0.5,0-0.7,0.1c-0.2,0-0.4,0-0.7,0c-0.3-0.1-0.6-0.1-0.9-0.1   c-0.3,0-0.6,0-0.9,0c-0.2,0-0.5,0-0.6,0c-0.2,0-0.4,0.1-0.6,0.1c-0.2,0-0.4,0-0.6,0c-0.2,0-0.4,0-0.6,0c-0.1,0-0.2-0.1-0.3-0.2   s-0.1-0.2-0.1-0.3c0.1-0.1,0.1-0.2,0.1-0.3s-0.1-0.2-0.1-0.3c-0.1-0.1-0.1-0.3-0.1-0.5c-0.1-0.2-0.1-0.3-0.2-0.4s-0.1-0.2-0.1-0.2   c0-0.1,0-0.1-0.1-0.2c0-0.2-0.1-0.5-0.1-0.6c-0.1-0.2-0.1-0.3-0.2-0.5s-0.2-0.5-0.3-1c-0.1-0.2-0.2-0.5-0.3-0.7   c-0.1-0.2-0.1-0.5-0.2-0.7c-0.1-0.2-0.2-0.5-0.3-0.7c-0.1-0.2-0.2-0.5-0.3-0.7c-0.2-0.5-0.3-0.9-0.4-1.2c-0.1-0.3-0.3-0.7-0.4-1   s-0.2-0.7-0.3-1c-0.1-0.2-0.2-0.5-0.2-0.7c-0.1-0.2-0.1-0.4-0.2-0.7s-0.2-0.5-0.3-0.8c-0.1-0.3-0.2-0.5-0.3-0.8   c-0.2-0.5-0.3-1-0.4-1.6c-0.1-0.2-0.2-0.5-0.3-0.8c-0.1-0.3-0.2-0.6-0.3-0.9c-0.1-0.3-0.1-0.6-0.2-0.9c-0.1-0.3-0.2-0.5-0.3-0.8   l-0.7-2.5c0-0.1,0-0.3-0.1-0.6c0-0.1-0.2-0.1-0.4-0.1c-0.1,0-0.1,0.1-0.1,0.2c-0.1,0.1-0.1,0.3-0.1,0.5c0,0.2,0,0.5-0.1,0.6   c-0.1,0.2-0.1,0.4-0.1,0.6c0,0.4,0,0.7-0.1,0.9c-0.1,0.1-0.1,0.2-0.1,0.4c0,0.1,0,0.3-0.1,0.5c0,0.1-0.1,0.2-0.1,0.4   c0,0.1,0,0.3-0.1,0.4c0,0.2-0.1,0.4,0,0.6c0,0.2,0,0.4-0.1,0.6c0,0.2-0.1,0.3,0,0.5s0,0.3,0,0.5c0,0.2,0,0.4,0,0.5   s-0.1,0.3-0.1,0.5c0,0.1,0,0.3,0,0.5c0,0.1,0,0.3-0.1,0.4v0.1c0,0.3,0,0.6-0.1,0.9c0,0.3,0,0.6,0,0.9c0,0.5,0,0.9,0,1.3   c0,0.4-0.1,0.9-0.1,1.3c0,0.4-0.1,0.8,0,1.3c0,0.4,0,0.9,0,1.3c0,0.5-0.1,1-0.1,1.5v1.5c-0.1,0.2-0.1,0.5-0.1,0.8   c0.1,0.2,0,0.5-0.1,0.8c-0.1,0-0.1,0.1,0,0.2c0,0.2,0,0.5-0.1,0.7s-0.1,0.4-0.1,0.7c0,0.4-0.1,0.5-0.4,0.5c-0.2,0-0.4,0-0.5,0   c-0.1,0-0.3,0-0.5,0H409h-0.9c-0.4,0-0.7,0-0.9,0.1c-0.8,0.1-1.6,0.1-2.4,0.1c-0.8,0-1.6,0-2.4,0c-0.1,0-0.3,0-0.5-0.1   c-0.1-0.1-0.3-0.1-0.4-0.1s-0.2-0.1-0.3-0.2c-0.1-0.1-0.1-0.3,0-0.4c0.1-0.1,0.1-0.4,0.1-0.7c0-0.6,0.1-1.3,0.2-2V581   c0-0.3,0-0.6,0-0.9c0-0.3,0.1-0.6,0.1-0.9v-1c0-0.3,0-0.6,0.1-1c0.1-0.2,0.1-0.5,0.1-0.8c0-0.3,0-0.5,0.1-0.8c0-0.2,0-0.4,0.1-0.6   c0-0.2,0.1-0.4,0.1-0.6c0-0.7,0-1.5,0.2-2.3c0-0.2,0.1-0.4,0.1-0.6v-0.7c0-0.3,0-0.6,0-0.9c0-0.3,0.1-0.6,0.1-1   c0.1-0.4,0.1-0.8,0.1-1.2c0-0.4,0-0.8,0.1-1.2c0-0.4,0.1-0.8,0.1-1.1v-1.1c0.1-0.3,0.1-0.6,0.1-0.9c0-0.3,0.1-0.6,0.1-0.9V562   c0-0.2,0-0.4,0.1-0.7c0-0.3,0.1-0.7,0.1-1c0-0.3,0.1-0.7,0.1-1v-0.3c0-0.8,0.1-1.7,0.2-2.5v-0.1c0-0.5,0-1,0.1-1.5c0-0.5,0-1,0-1.5   c-0.1-0.2,0-0.6,0.1-1c0.1-0.2,0.1-0.5,0.1-0.6c0-0.2,0.1-0.4,0.1-0.6v-0.7c0-0.2,0-0.4,0.1-0.6c0.1-0.2,0.1-0.5,0.1-1   c0-0.7,0.1-1.2,0.3-1.8v-0.4v-2.1c0-0.2,0.1-0.4,0.2-0.5s0.3-0.1,0.5,0c0,0,0.1,0,0.1,0c0,0,0.1,0,0.1,0c0.4,0,0.8,0,1.2,0   c0.4,0,0.8,0,1.2,0c0.6,0,1.2,0.1,1.8,0c0.6,0,1.2,0,1.8,0c0.5,0.1,0.9,0.1,1.3,0.1c0.4-0.1,0.8-0.1,1.2-0.1c0.4,0,0.8,0,1.2,0   c0.5,0,0.9,0,1.4,0.1c0.4,0,0.9,0,1.3,0c0.2,0,0.4,0.2,0.5,0.5l0.3,0.5c0.1,0.2,0.2,0.4,0.3,0.6c0.1,0.2,0.2,0.5,0.4,1   c0.1,0.2,0.1,0.4,0.2,0.6c0.1,0.2,0.1,0.4,0.1,0.6c0.2,0.4,0.3,0.8,0.4,1.1c0.1,0.3,0.2,0.7,0.4,1.1c0.1,0.2,0.2,0.5,0.2,0.8   c0,0.3,0.1,0.5,0.2,0.8c0.1,0.3,0.1,0.5,0.1,0.7l0.5,1.8c0.1,0.3,0.2,0.7,0.3,1l0.3,0.9c0.1,0.5,0.3,1,0.4,1.5   c0.1,0.5,0.2,1,0.4,1.5c0.1,0.2,0.2,0.6,0.3,1c0,0.2,0.1,0.3,0.3,0.3c0.1,0.1,0.2,0,0.3-0.3l0.1-0.5c0-0.1,0.1-0.3,0.1-0.5   c0.1-0.4,0.2-0.8,0.3-1.3c0.1-0.4,0.2-0.9,0.4-1.3c0.1-0.2,0.1-0.5,0.2-0.7c0-0.2,0.1-0.5,0.2-0.7c0.3-0.7,0.5-1.5,0.7-2.3   c0-0.2,0.1-0.5,0.1-0.6c0-0.2,0.1-0.4,0.1-0.6c0.1-0.5,0.2-1.1,0.5-1.6c0.2-0.5,0.4-1,0.5-1.6c0-0.2,0.1-0.4,0.1-0.6   s0.1-0.4,0.1-0.6c0.1-0.2,0.2-0.5,0.3-0.7c0.1-0.2,0.2-0.5,0.3-0.7s0.2-0.5,0.3-0.6c0.1-0.2,0.2-0.4,0.3-0.6   c0.1-0.3,0.3-0.5,0.6-0.5c0.6,0,1.2,0,1.8,0s1.2-0.1,1.9,0c0.1,0,0.3,0,0.5,0s0.4,0,0.5,0c0.4,0.1,0.7,0.1,1,0.1   c0.5-0.1,1.1-0.1,1.7-0.1c0.6,0.1,1.2,0.1,1.8,0c0.5,0,1-0.1,1.5-0.1h1.5c0.2,0,0.3,0,0.4-0.1c0.4,0,0.7,0.1,0.7,0.5   c0.1,0.3,0.1,0.6,0,0.9c0,0.3,0,0.5,0,0.8c0.1,0.2,0.1,0.4,0.1,0.6s0,0.3,0.1,0.5c0.1,0.2,0.1,0.5,0.1,0.8c0,0.3,0,0.6,0,0.9   c0,0.2,0.1,0.5,0.1,0.8c0,0.3,0.1,0.6,0.1,0.8c0,0.4,0,0.7,0.1,0.9s0.1,0.4,0.1,0.6c0,0.2,0.1,0.4,0.1,0.6v0.3c0,0.2,0,0.4,0,0.6   c0,0.2,0,0.3,0,0.5c0,0.4,0,0.8,0.1,1.1c0.1,0.3,0.1,0.7,0.1,1.1c0,0.2,0.1,0.4,0,0.6s0,0.4,0,0.6c0,0.2,0.1,0.5,0.1,0.8v0.8   c0,0.1,0,0.2,0,0.3s0,0.2,0,0.3c0,0.1,0.1,0.4,0.1,0.8c0.1,0.3,0.1,0.6,0.1,0.9s0,0.6,0,0.9c0,0.2,0,0.4,0,0.5c0,0.2,0,0.3,0,0.5   c0,0.1,0,0.2,0,0.3c0,0.1,0,0.2,0,0.3c0,0.1,0,0.2,0,0.3c0,0.1,0,0.2,0.1,0.3v0.3c0,0.2,0,0.4,0,0.6c0,0.2,0,0.4,0,0.7   c0.1,0.3,0.1,0.7,0.1,1c0,0.3,0,0.7,0,1c0.1,0.2,0.1,0.4,0.1,0.6c0,0.2,0,0.3,0.1,0.5v0.4c-0.1,0.4-0.1,0.8,0,1.1   c0,0.3,0.1,0.7,0.1,1.1c0.1,0.2,0.1,0.5,0.1,0.8c0,0.3,0.1,0.6,0.1,0.9c0.1,0.2,0.1,0.4,0.1,0.6v0.7c0,0.6,0.1,1.2,0.2,1.8v0.1   c0,0.2,0,0.5,0,0.7c0.1,0.2,0.1,0.4,0,0.7c0,0.3,0,0.7,0.1,1c0,0.3,0.1,0.6,0.1,1c0.1,0.2,0.1,0.4,0,0.6c0,0.2,0,0.4,0,0.6   c0,0.2,0,0.4,0.1,0.5c0.1,0.2,0.1,0.5,0.1,0.8c0,0.3,0.1,0.6,0.1,0.9c0,0.1,0,0.3,0,0.4c0,0.1,0,0.3,0,0.4c0.1,0.4,0,0.6-0.5,0.7   c-0.4,0.1-0.8,0.1-1.3,0.1c-0.5,0-0.9,0-1.2,0H441z"/>
	<path class="st1" d="M471.7,584.6c-0.3,0-0.7,0-1,0c-0.4,0-0.7-0.1-1-0.1c-0.2-0.1-0.3-0.1-0.5-0.1c-0.2,0-0.4,0-0.6-0.1   c-0.2,0-0.4,0-0.6-0.1s-0.4-0.1-0.6-0.1c-0.4-0.1-0.8-0.2-1.1-0.3c-0.3-0.1-0.7-0.2-1.1-0.3c-0.1,0-0.2,0-0.3-0.1   c-0.1,0-0.2-0.1-0.3-0.1c-0.2-0.1-0.5-0.2-0.7-0.3c-0.2-0.1-0.4-0.2-0.6-0.3c-1-0.5-1.9-0.9-2.9-1.4c-0.2-0.1-0.5-0.2-0.6-0.4   c-0.2-0.2-0.4-0.3-0.6-0.5c-0.2-0.2-0.4-0.3-0.5-0.4s-0.3-0.3-0.5-0.5c-0.4-0.4-0.8-0.8-1.1-1.2c-0.4-0.4-0.7-0.8-1-1.3   c-0.4-0.6-0.8-1.2-1.2-1.8s-0.7-1.3-1-2c-0.6-1.2-1-2.5-1.3-3.8l-0.3-1c-0.1-0.3-0.2-0.7-0.3-1.1v-0.1c-0.1-0.7-0.2-1.4-0.1-2.2   v-0.6c0-0.2,0-0.4,0.1-0.6c0-0.1,0-0.2,0-0.4c0-0.2,0-0.3,0-0.5c0-0.3,0-0.6,0.1-0.8c0-0.1,0.1-0.3,0-0.5s0-0.3,0-0.5   c0.1-0.7,0.2-1.4,0.3-2s0.3-1.3,0.6-1.9c0.2-0.6,0.5-1.2,0.9-1.8l0.3-0.6c0.1-0.2,0.2-0.4,0.3-0.5c0.2-0.2,0.5-0.5,0.6-0.8   c0.2-0.3,0.4-0.5,0.6-0.8c0.2-0.2,0.5-0.5,0.7-0.8c0.2-0.2,0.4-0.5,0.7-0.8c0.3-0.4,0.6-0.7,1-1c0.2-0.1,0.5-0.4,0.8-0.8   c0.6-0.5,1.2-1,2-1.4c0.4-0.2,0.9-0.5,1.3-0.8c0.4-0.3,0.9-0.6,1.3-0.8c0.4-0.2,0.7-0.3,1-0.5c0.3-0.2,0.7-0.3,1-0.4   c0.2,0,0.4-0.1,0.5-0.2c0.1,0,0.3-0.1,0.5-0.2c0.2-0.1,0.5-0.2,0.7-0.2c0.2,0,0.5-0.1,0.7-0.1c0.4-0.1,0.8-0.2,1.2-0.2   c0.4,0,0.8-0.1,1.2-0.2c0.2-0.1,0.4-0.1,0.7-0.1c0.3,0,0.6-0.1,0.9-0.2c0.3-0.1,0.7-0.1,1,0c0.2,0.1,0.4,0.1,0.6,0.1   c0.2,0,0.4,0,0.7,0.2c0.1,0,0.2,0,0.4,0c0.1,0,0.3,0,0.4,0c0.5,0,0.9,0.1,1.3,0.2s0.8,0.2,1.2,0.3c0.3,0.1,0.6,0.2,0.9,0.3   c0.3,0.1,0.5,0.2,0.8,0.3c0.5,0.2,1.1,0.5,1.5,0.7c0.5,0.2,1,0.5,1.5,0.7c0.8,0.3,1.4,0.6,1.9,1l1.1,0.9c0.3,0.2,0.6,0.5,0.9,0.8   c0.3,0.3,0.6,0.6,0.8,0.9c0.3,0.3,0.6,0.7,0.9,1c0.3,0.4,0.5,0.7,0.8,1.1c0.2,0.3,0.4,0.6,0.6,0.9c0.2,0.3,0.3,0.6,0.5,0.9   c0.2,0.2,0.4,0.5,0.5,0.8s0.2,0.6,0.3,0.8c0.2,0.4,0.3,0.8,0.5,1.1c0.2,0.3,0.3,0.7,0.4,1.1c0.1,0.3,0.2,0.6,0.3,0.9s0.2,0.6,0.3,1   c0,0.2,0.1,0.4,0.1,0.6s0,0.4,0.1,0.7c0.1,0.5,0.1,0.9,0.1,1.3c0,0.5,0,0.9,0,1.4c0,0.2,0,0.5-0.2,1c0,0.2-0.1,0.5-0.1,0.8   c-0.1,0.4-0.2,0.8-0.2,1.2c0,0.4-0.1,0.8-0.2,1.2c0,0.2-0.1,0.4-0.1,0.6c0,0.2-0.1,0.4-0.1,0.6c-0.1,0.2-0.1,0.5-0.2,0.8   c0,0.3-0.1,0.5-0.2,0.8c-0.1,0.4-0.2,0.9-0.4,1.3c-0.2,0.4-0.4,0.8-0.6,1.2c-0.1,0.2-0.2,0.4-0.2,0.5c0,0.1,0,0.2-0.1,0.2   c-0.2,0.2-0.5,0.5-0.6,0.8c-0.2,0.3-0.4,0.6-0.6,0.8c-0.3,0.4-0.6,0.7-0.8,1.1s-0.5,0.7-0.9,1.1c-0.2,0.3-0.5,0.6-0.8,0.8   c-0.1,0.1-0.2,0.2-0.2,0.2c-0.2,0.4-0.6,0.7-0.9,0.9s-0.7,0.4-1,0.7c-0.4,0.2-0.7,0.5-1,0.6s-0.6,0.4-0.9,0.6   c-0.3,0.2-0.6,0.4-0.9,0.5c-0.3,0.1-0.6,0.2-0.9,0.3c-0.7,0.2-1.5,0.5-2.4,0.8c-0.1,0-0.2,0.1-0.3,0c-0.1,0-0.2,0-0.3,0.1   c-0.3,0-0.7,0.1-1,0.2l-0.9,0.1c-0.5,0.1-0.9,0.1-1.3,0.1h-1.3H471.7z M482.6,563c0-0.3-0.1-0.6-0.1-0.9l-0.2-0.6   c0-0.2-0.1-0.4-0.2-0.6c-0.1-0.2-0.2-0.5-0.3-0.7s-0.3-0.4-0.4-0.7c-0.2-0.2-0.5-0.5-0.6-0.8s-0.4-0.6-0.6-0.8   c-0.4-0.5-0.9-0.9-1.3-1.3c-0.1-0.1-0.2-0.2-0.3-0.2s-0.2-0.1-0.3-0.2c-0.9-0.7-1.9-1.2-2.8-1.6c-0.6-0.2-1.3-0.4-1.9-0.4   c-0.2,0-0.4,0-0.5,0c-0.2,0-0.3,0.1-0.5,0.1c-0.7,0-1.4,0-2.2,0.2c-0.2,0-0.5,0.1-0.6,0.1s-0.4,0.1-0.6,0.2   c-0.3,0.1-0.6,0.2-0.9,0.4s-0.6,0.3-0.9,0.5c-0.3,0.2-0.6,0.3-0.9,0.5s-0.5,0.4-0.8,0.7c-0.1,0.2-0.2,0.3-0.3,0.5s-0.3,0.3-0.4,0.5   c0,0-0.2,0.3-0.4,0.5c-0.2,0.3-0.4,0.6-0.5,0.7c-0.1,0.1-0.2,0.2-0.3,0.4c-0.1,0.2-0.7,1.5-0.9,2c-0.1,0.2-0.1,0.4-0.1,0.5   c0,0.1,0,0.3,0,0.5c-0.1,0.4-0.2,0.7-0.2,1c-0.1,0.3-0.1,0.6-0.1,1v0.2c-0.1,0.2-0.1,0.5-0.1,0.8l0.2,0.8c0,0.8,0.2,1.5,0.6,2.3   c0.2,0.5,0.5,1.1,0.9,1.6c0.3,0.5,0.7,1,1.2,1.4l0.7,0.7c0.2,0.2,0.4,0.3,0.4,0.4c0.2,0.1,0.5,0.3,0.7,0.5c0.2,0.2,0.4,0.3,0.7,0.5   c0.2,0.2,0.3,0.2,0.4,0.3c0.2,0.1,0.4,0.2,0.6,0.3c0.2,0.1,0.4,0.2,0.6,0.3c0.2,0.1,0.5,0.2,0.8,0.2s0.5,0.1,0.8,0.2   c0.2,0.1,0.5,0.1,0.8,0.1c0.3,0,0.5,0,0.8,0.1c0.2-0.1,0.3-0.1,0.5-0.1c0.1,0,0.3,0,0.4,0l0.9-0.1c0.3,0,0.6-0.1,0.8-0.2   c0.6-0.1,1.1-0.4,1.5-0.8l0.1-0.1l0.5-0.3c0.2-0.1,0.3-0.2,0.5-0.3c0.2-0.2,0.5-0.5,0.8-0.7c0.3-0.2,0.6-0.4,0.8-0.7   c0.7-0.7,1.3-1.4,1.9-2.1c0.2-0.2,0.4-0.5,0.6-0.8c0.2-0.3,0.3-0.6,0.4-0.9c0.5-1.3,0.8-2.8,0.9-4.4   C482.7,563.5,482.7,563.3,482.6,563z"/>
	<path class="st3" d="M511.8,584.3c-0.3,0-0.6,0-0.9,0c-0.3,0.1-0.6,0.1-0.9,0h-1.4c-0.2,0-0.4,0-0.6-0.1s-0.3-0.1-0.5-0.1   c-0.2,0-0.4-0.1-0.5-0.5c-0.1-0.2-0.2-0.5-0.3-0.8c-0.1-0.3-0.2-0.6-0.3-0.8c-0.4-1-0.8-2.1-1.2-3.3c-0.2-0.7-0.5-1.4-0.7-2   c-0.2-0.6-0.4-1.3-0.6-2c-0.2-0.5-0.3-1-0.5-1.5c-0.2-0.5-0.4-1-0.6-1.5c-0.1-0.2-0.2-0.5-0.3-0.8s-0.2-0.5-0.3-0.8   c-0.1-0.4-0.2-0.8-0.4-1.1c-0.1-0.4-0.3-0.7-0.4-1.1l-0.3-1.2l-0.3-1.2c-0.1-0.2-0.2-0.5-0.2-0.8c-0.1-0.3-0.1-0.6-0.2-0.9   c-0.1-0.4-0.3-0.8-0.4-1.2c-0.1-0.4-0.2-0.9-0.4-1.3c-0.2-0.5-0.4-1.1-0.6-1.7c-0.2-0.6-0.3-1.2-0.5-1.7l-0.5-1.8   c-0.1-0.6-0.3-1.2-0.5-1.7c-0.1-0.2-0.2-0.5-0.2-0.8c0-0.2-0.1-0.5-0.2-0.8l-1.4-4l-0.7-1.8l-0.5-1.6c0,0,0-0.1,0-0.1   c0,0,0-0.1,0-0.2c-0.2-0.4,0.7-1,0.9-1h2.2c0.3,0,0.6,0,0.9-0.1c0.3,0,0.6-0.1,0.9-0.1c0.2,0,0.3,0.1,0.5,0.1c0.2,0,0.3,0,0.5,0.1   c0.1,0,0.2,0.1,0.4,0.1c0.3,0,0.6,0.1,0.9,0.1c0.3,0,0.6,0.1,0.8,0.1c0.3,0.1,0.7,0.1,0.9,0c0.1,0,0.3,0,0.6,0.1   c0.1,0,0.2,0.2,0.3,0.5c0.1,0.4,0.2,0.8,0.3,1.1c0.1,0.3,0.2,0.7,0.3,1c0.1,0.4,0.2,0.8,0.3,1.1c0.1,0.4,0.2,0.7,0.3,1.1   c0.3,0.9,0.6,1.7,0.9,2.6c0.3,0.9,0.6,1.8,0.9,2.6c0.1,0.2,0.2,0.5,0.3,0.7s0.2,0.4,0.3,0.7c0.2,0.6,0.4,1.2,0.6,1.8   c0.2,0.6,0.3,1.2,0.5,1.9c0.1,0.4,0.2,0.8,0.3,1.3s0.3,0.9,0.5,1.3c0.1,0.3,0.3,0.6,0.4,0.9c0.1,0.3,0.2,0.6,0.4,0.9l0.5,1.2   l0.4,1.2c0.1,0.1,0.1,0.2,0.2,0.4s0.1,0.3,0.2,0.4c0.1,0.2,0.2,0.3,0.2,0.2c0.1,0,0.2-0.1,0.3-0.1s0.2,0,0.2-0.1   c0.1-0.2,0.2-0.3,0.2-0.5c0-0.1,0.1-0.3,0.2-0.5c0.1-0.4,0.2-0.8,0.3-1.1c0.1-0.3,0.2-0.7,0.3-1c0.4-0.6,0.6-1.2,0.7-1.8   c0.2-0.6,0.4-1.3,0.6-1.9c0.2-0.6,0.5-1.3,0.7-1.9c0.2-0.3,0.3-0.7,0.4-1l0.3-1c0.1-0.2,0.2-0.5,0.2-0.7c0-0.2,0.1-0.4,0.2-0.6   c0.1-0.4,0.2-0.8,0.3-1.1c0.1-0.3,0.2-0.7,0.3-1.1c0.1-0.2,0.2-0.5,0.4-0.8c0.1-0.2,0.2-0.4,0.3-0.7c0.3-0.8,0.6-1.5,0.9-2.3   c0.2-0.8,0.5-1.5,0.7-2.3l0.7-1.6c0-0.1,0.1-0.2,0.1-0.3s0-0.2,0.1-0.3c0.1-0.1,0.2-0.3,0.4-0.4c0.2-0.2,0.4-0.2,0.6-0.2   c0.1,0.1,0.3,0.1,0.5,0.1c0.2,0,0.3,0,0.5,0c0.2,0,0.4,0,0.5,0.1c0.2,0.1,0.3,0.1,0.5,0.1c0.2,0,0.3,0,0.5,0.1h1.3   c0.3-0.1,0.6-0.1,0.9-0.1c0.3,0,0.6,0,0.9,0c0.1,0,0.2,0,0.3-0.1c0.1,0,0.2-0.1,0.3-0.1c0.1,0,0.2,0.1,0.3,0c0.1,0,0.2,0,0.3,0   c0.2-0.1,0.5-0.1,0.9-0.1h0.7c0.2,0,0.4,0.2,0.5,0.5v0.4l-0.3,1c-0.1,0.3-0.2,0.7-0.4,1c-0.2,0.5-0.3,0.9-0.3,1.2   c-0.1,0.2-0.1,0.5-0.2,0.8s-0.1,0.5-0.2,0.8c-0.2,0.4-0.3,0.8-0.4,1.1c-0.1,0.4-0.2,0.7-0.3,1.1c-0.1,0.5-0.2,0.9-0.4,1.3   c-0.2,0.4-0.3,0.8-0.4,1.2c-0.1,0.3-0.2,0.7-0.4,1c-0.2,0.3-0.3,0.7-0.5,1c-0.1,0.2-0.2,0.4-0.2,0.6c0,0.2-0.1,0.4-0.2,0.6   c0,0.2-0.1,0.5-0.2,0.6c-0.1,0.2-0.2,0.4-0.3,0.6c-0.1,0.2-0.2,0.5-0.3,0.8s-0.2,0.6-0.3,0.8s-0.2,0.5-0.3,0.8   c-0.1,0.3-0.2,0.6-0.3,0.9c-0.1,0.4-0.2,0.8-0.4,1.2c-0.2,0.4-0.3,0.8-0.4,1.2c-0.2,0.5-0.3,1-0.5,1.5c-0.2,0.5-0.3,1-0.4,1.5   c-0.1,0.2-0.2,0.5-0.2,0.7c0,0.2-0.1,0.5-0.2,0.7c-0.1,0.4-0.2,0.7-0.3,1c-0.1,0.3-0.2,0.6-0.3,0.9c-0.1,0.4-0.3,0.8-0.4,1.1   c-0.1,0.3-0.2,0.7-0.4,1.1c-0.1,0.4-0.2,0.8-0.4,1.2c-0.2,0.4-0.3,0.8-0.4,1.2c-0.1,0.3-0.2,0.6-0.3,0.9c-0.1,0.3-0.2,0.5-0.3,0.8   c-0.2,0.5-0.5,1.1-0.8,1.9c-0.1,0.3-0.2,0.7-0.3,1c-0.1,0.3-0.2,0.7-0.3,1c-0.2,0.5-0.4,1.2-0.5,1.9c0,0.2-0.1,0.5-0.3,0.7   c-0.2,0.1-0.4,0.2-0.6,0.2H514H511.8z"/>
	<path class="st3" d="M537.9,570.6c-0.1-0.8-0.1-1.6-0.1-2.3s0-1.5,0-2.3c-0.1-0.5-0.1-1,0-1.5c0-0.5,0-1,0-1.5c0-0.3,0-0.6,0-0.9   c0-0.3,0.1-0.5,0.1-0.8c0-0.5,0-0.8,0.1-1c0.1-1.5,0.1-2.9,0.1-4.4c0-1.5,0-2.9,0-4.4c0-0.8,0.1-1.6,0-2.4c0-0.8,0-1.6,0-2.4   c0-0.2,0-0.4,0-0.6c0-0.2,0-0.3,0-0.5c0-0.2-0.1-0.6-0.1-1c0-0.2,0-0.3,0.2-0.5c0.1-0.2,0.2-0.2,0.5-0.2h0.3   c0.1,0.1,0.3,0.1,0.5,0.1c0.1,0,0.3,0,0.4,0h4.3c0.2,0,0.4,0,0.5-0.1c0.1-0.1,0.3-0.1,0.6-0.1h2c0.2,0,0.4,0.1,0.6,0.3   c0.1,0.2,0.1,0.4,0,0.6c0,0.1,0,0.2,0,0.3c0,0.1,0,0.2,0,0.3v1c0,0.4,0,0.7,0.1,1.1c0,0.7,0,1.3,0,1.9c-0.1,0.5-0.1,1,0,1.4   c0,0.5,0,0.9,0,1.4c0,0.7-0.1,1.3,0,2c0,0.7,0,1.3,0,2c0,0.4-0.1,0.8,0,1.1c0,0.3,0,0.7,0,1.1c-0.1,0.5-0.1,1-0.1,1.5s0,1,0,1.5   v0.9c0,0.3,0,0.6,0.1,0.9s0.1,0.6,0.1,0.9v0.9v7.3c0,0.5,0,0.8,0.1,1c0,0.2,0.1,0.4,0,0.5c0,0.2,0,0.3,0.1,0.5v0.1   c0,0.6,0,1.3,0.1,1.9c0,0.6,0,1.2,0,1.8c0,0.3-0.1,0.7,0,1c0,0.3,0,0.7-0.1,1c-0.1,0.4-0.1,0.8,0,1.3c0,0.5,0,0.9,0,1.3   c0,0.3,0,0.6,0.1,0.8c0,0.1,0.1,0.2,0.1,0.4c-0.1,0.4-0.3,0.5-0.6,0.5h-0.3c-0.5,0-0.9,0-1.3,0c-0.4,0-0.9,0-1.3,0   c-0.3,0-0.6,0-0.9,0c-0.3,0-0.6,0-0.9,0c-0.4,0-0.8-0.1-1.1-0.1c-0.4,0-0.7,0-1-0.1h-0.7c-0.2,0-0.5,0-0.7,0.1   c-0.3,0.1-0.6-0.1-0.7-0.5c-0.1-0.3-0.1-0.5-0.1-0.7c-0.1-0.7-0.1-1.4,0-2.1c0-0.7,0-1.4,0-2.1c0-0.4-0.1-0.8,0-1.1   c0-0.3,0-0.7,0-1c-0.1-0.7-0.1-1.3-0.1-1.8c0-0.6,0-1.1,0-1.7V570.6z"/>
	<path class="st3" d="M555.8,580.4c0-0.6,0-1.2,0.1-1.8s0.1-1.2,0-1.8c-0.1-0.6-0.1-1.1,0-1.7c0-0.6,0-1.2,0-1.8   c0-0.2,0-0.5,0.1-0.7c0-0.2,0.1-0.5,0.1-0.7c0-0.5,0-1,0-1.5c0-0.2,0-0.6-0.1-1.1c0-0.2,0-0.5-0.1-0.6c-0.1-0.6-0.1-1.1-0.1-1.6   c0-0.5,0-1.1,0-1.6c0-0.2-0.1-0.5,0-0.7c0-0.2,0-0.5,0-0.7c-0.1-0.5-0.1-0.9-0.1-1.3c0-0.5,0-0.9,0-1.4c-0.1-1.5-0.1-3.1,0-4.7   v-1.2c0-0.4,0-0.8,0.1-1.2c0.1-0.8,0.1-1.7,0.1-2.4c0-0.8,0-1.6,0-2.4c-0.1-0.6-0.1-1.3-0.1-1.9s0-1.3,0-1.9V545   c0-0.3,0.2-0.5,0.5-0.5c0.2,0,0.3,0,0.5,0c0.2,0,0.3,0,0.5,0.1h0.4c0.4,0,0.8,0,1.1,0s0.7,0,1.1,0c0.4,0,0.9-0.1,1.5-0.2h0.4   c0.3,0,0.7,0,1,0c0.3,0,0.7,0,1,0c0.2,0,0.6,0,1.1,0.2h0.1c0.4,0,0.8,0.1,1.2,0.1c0.4,0.1,0.8,0,1.2-0.1c0.5-0.1,0.9-0.2,1.4-0.2   h1.3c0.2,0,0.3,0,0.4,0c0.1,0,0.3,0,0.4,0c0.3,0,0.6,0,0.8,0.1c0.1,0,0.2,0.1,0.3,0c0.1,0,0.2,0,0.3,0c0.8,0,1.5,0,2.2,0   s1.5,0,2.2,0c0.7-0.1,1.4-0.1,2.2,0c0.8,0,1.5,0,2.2,0c0.1,0,0.2,0,0.3,0c0.1,0,0.2,0,0.3,0c0.6,0,0.9,0.3,0.8,0.9   c0,0.1-0.1,0.4-0.1,0.8c0,0.2,0,0.3,0,0.4s0,0.3,0,0.4c-0.1,0.1-0.1,0.3-0.1,0.5v5.8c0,0.3-0.1,0.6-0.4,0.8   c-0.1,0.1-0.2,0.1-0.3,0.1s-0.2,0-0.3,0.1c-0.2,0-0.6,0.1-1.1,0.1h-1.3c-0.7,0-1.4-0.1-2.1-0.1h-2.1c-0.2,0-0.5,0-0.9-0.1   c-0.1,0-0.2,0-0.3,0c-0.1,0-0.2,0-0.3,0c-0.2,0.1-0.5,0.1-0.8,0.1c-0.3,0-0.5,0-0.8,0c-0.4,0.1-0.8,0.1-1.3,0.1h-1.3h-1.7   c-0.2,0-0.6-0.1-1.1-0.1c-0.1,0-0.2,0.1-0.5,0.2c-0.2,0.3-0.3,0.5-0.3,0.8c0,0.3,0.1,0.6,0,0.9c0,0.3,0,0.6,0,0.9   c0,0.4,0.1,0.7,0,1c0,0.3,0,0.7,0,1c0,0.7,0.3,1,1,0.8c0.4-0.1,0.8-0.1,1-0.1c0.2,0,0.3,0,0.5-0.1s0.3-0.1,0.5-0.1   c0.1,0,0.3,0,0.4,0c0.2,0,0.3,0,0.4,0c0.1,0,0.2-0.1,0.4-0.1c0.3,0,0.6,0,0.9,0c0.3,0,0.6,0,0.9,0c0.5,0,1-0.1,1.5-0.1h1.5   c0.2,0,0.5,0.1,0.8,0.1h0.8c0.2,0,0.4,0,0.5-0.1c0.2-0.1,0.5,0,0.6,0.1s0.2,0.3,0.2,0.6c0,0.1,0,0.2,0,0.3c0,0.1,0,0.2-0.1,0.3v0.2   c0.1,0.3,0.1,0.6,0.1,0.9c0,0.3,0,0.6,0.1,0.9v0.2c0,0.5,0.1,1,0.2,1.7v0.3v3.5v0.3c0,0.1,0.1,0.2,0,0.2c0,0,0,0.1,0,0.2   c-0.1,0.1-0.2,0.2-0.2,0.3c0,0-0.1,0.1-0.3,0.1h-2.6c-0.4,0-0.8,0.1-1.2,0c-0.4,0-0.9,0-1.3,0.1c-0.5,0.1-1.1,0.1-1.7,0   c-0.6,0-1.2,0-1.8,0c-0.3-0.1-0.7-0.1-1.1-0.1c-0.4,0-0.8,0-1.2,0c-0.6,0-0.9,0.3-0.9,0.9c0,0.2,0,0.5,0,0.8c0,0.2,0,0.5,0,0.8   c0.1,0.4,0.1,0.7,0,1c-0.1,0.6,0,1.1,0.1,1.5c0.1,0.2,0.2,0.2,0.3,0.3c0.1,0.1,0.2,0.1,0.4,0.2h0.1c0.2,0,0.4-0.1,0.6-0.1h3.1   c0.2,0,0.5,0,0.8,0.1s0.6,0,0.8,0h1.7c0.3,0.1,0.6,0.1,0.8,0.1l1.6-0.2c0.2,0,0.4,0,0.6,0c0.2,0,0.4,0,0.6,0.1h0.3   c0.5,0,1.1,0,1.6,0c0.5,0,1.1,0,1.6,0c0.1,0,0.3,0,0.5,0c0.1,0,0.3,0,0.4,0c0.3-0.1,0.6,0,0.8,0.2c0.1,0.1,0.1,0.2,0.1,0.2   c0,0.1,0,0.3,0,0.4c0,0.1,0,0.3,0,0.4c0,0-0.1,0-0.1,0.1c0.1,0.2,0.1,0.5,0.1,0.8c0,0.3,0,0.6,0,0.9c0,0.4,0,0.9,0.1,1.4   c0,0.5,0.1,0.9,0.1,1.4c0.1,0.4,0.1,0.8,0.1,1.1c0,0.3,0,0.7,0,1.1c0,0.1,0,0.2-0.1,0.3c-0.1,0.1-0.1,0.3,0,0.4c0,0.1,0,0.2,0,0.3   c0,0.1,0,0.2,0,0.3c0,0.2-0.1,0.3-0.2,0.3l-0.3,0.3c-0.1,0-0.2,0.1-0.4,0.1h-3.2c-0.4-0.1-0.8-0.1-1.2-0.1H576   c-0.1,0-0.2,0-0.2-0.1c-0.2-0.1-0.5-0.2-0.9-0.2h-2.5c-0.8,0-1.7,0-2.5,0.1h-3.9c-0.2,0-0.5,0-0.8,0s-0.6-0.1-0.8-0.1   c-0.2,0.1-0.5,0.1-0.8,0.1s-0.5,0-0.8,0.2c0,0-0.1,0-0.1,0c0,0-0.1,0-0.1,0c-0.3,0-0.6,0.1-0.9,0.1h-1c-0.2,0-0.4,0-0.5-0.1   c-0.1-0.1-0.2-0.1-0.4-0.1s-0.3,0-0.4-0.1c-0.2,0-0.4,0-0.6,0s-0.4,0.1-0.6,0.1c-0.4,0-0.8,0-1.1,0c-0.1,0-0.2,0-0.3,0   c-0.1,0-0.2,0-0.4,0c0,0-0.1,0-0.1,0c0,0-0.1,0-0.1,0c-0.3-0.2-0.5-0.4-0.5-0.6v-2.3V580.4z"/>
</g>
<polygon class="st1" points="401.3,584.2 404.6,544.2 418.1,544.1 423.2,560.6 428.2,544.3 441.8,544.1 445.2,584.2 435.7,584.4   433.3,562.1 426.3,584 420.1,584.1 413.5,562.5 413.1,561.2 411.4,584 "/>
<path class="st1" d="M494.8,544.3"/>
<path class="st4" d="M507.6,584.3"/>
<polygon class="st1" points="494.9,545.5 507.6,584.3 517.1,584.2 530.2,545 520.9,544.6 512.5,567.5 504.3,544.7 494.5,544.7 "/>
<polygon class="st1" points="538,544.4 538.3,584 547.8,584 547.7,544.4 "/>
<polygon class="st1" points="556,544.5 582,544.6 582,554 581.4,554.3 565.1,554.5 565.5,559.5 577.1,559.5 577.5,569.2   565.2,569.4 565.3,574.9 582.3,575 582.4,584.2 555.8,584.5 555.4,544.5 "/>
</svg>