<svg width="24" height="24" viewBox="0 0 24 24" fill="none" xmlns="http://www.w3.org/2000/svg">
<path d="M20.5999 11.9999C20.5999 16.7496 16.7496 20.5999 11.9999 20.5999C7.25025 20.5999 3.3999 16.7496 3.3999 11.9999C3.3999 7.25025 7.25025 3.3999 11.9999 3.3999C16.7496 3.3999 20.5999 7.25025 20.5999 11.9999ZM12.0202 7.76939C11.3452 7.31934 10.4772 7.27738 9.76181 7.66022C9.04647 8.04306 8.5999 8.78855 8.5999 9.5999V14.3999C8.5999 15.2113 9.04647 15.9567 9.76182 16.3396C10.4772 16.7224 11.3452 16.6805 12.0202 16.2304L15.6202 13.8304C16.2323 13.4224 16.5999 12.7355 16.5999 11.9999C16.5999 11.2643 16.2323 10.5774 15.6202 10.1694L12.0202 7.76939Z" fill="white" stroke="white" stroke-width="2"/>
</svg>
